<svg width="60" height="60" viewBox="0 0 60 60" fill="none" xmlns="http://www.w3.org/2000/svg">
<g id="gitea_logo_icon_248228 1" clip-path="url(#clip0_4_69)">
<path id="Vector" d="M10.5227 11.5075C9.90517 11.5075 9.21017 11.5575 8.42267 11.7275C7.59017 11.9025 5.22267 12.435 3.28767 14.295C-1.00733 18.125 0.0876663 24.2125 0.222666 25.13C0.385166 26.245 0.880166 29.3475 3.24767 32.05C7.62017 37.4025 17.0302 37.28 17.0302 37.28C17.0302 37.28 18.1852 40.0375 19.9502 42.5775C22.3377 45.735 24.7902 48.1975 27.1752 48.495C33.1902 48.495 45.2052 48.485 45.2052 48.485C45.2052 48.485 46.3502 48.495 47.9052 47.5C49.2427 46.69 50.4377 45.2675 50.4377 45.2675C50.4377 45.2675 51.6677 43.95 53.3877 40.9425C53.9127 40.0175 54.3502 39.12 54.7327 38.2725C54.7327 38.2725 60.0002 27.095 60.0002 16.215C59.8952 12.92 59.0827 12.34 58.8927 12.1475C58.5027 11.7575 57.9777 11.765 57.9777 11.765C57.9777 11.765 46.7902 12.395 40.9977 12.53C39.7277 12.5575 38.4677 12.5875 37.2177 12.5975V23.7825L35.6327 23.03C35.6327 19.555 35.6227 12.605 35.6227 12.605C32.8552 12.645 27.1102 12.395 27.1102 12.395C27.1102 12.395 13.6127 11.72 12.1427 11.585C11.6752 11.5575 11.1402 11.5075 10.5227 11.5075ZM11.4077 16.0875H11.6852C11.6852 16.0875 12.3627 21.76 13.1852 25.08C13.8727 27.8675 15.5502 32.5 15.5502 32.5C15.5502 32.5 13.0602 32.2025 11.4477 31.63C8.97267 30.82 7.92517 29.845 7.92517 29.845C7.92517 29.845 6.10017 28.5675 5.18517 26.045C3.61017 21.825 5.05267 19.25 5.05267 19.25C5.05267 19.25 5.85267 17.1025 8.72767 16.3875C9.71517 16.1225 10.8852 16.0875 11.4077 16.0875ZM32.2327 22.4725C32.8827 22.48 33.5052 22.79 33.5052 22.79L35.6752 23.845L34.3527 26.5325C34.0392 26.5275 33.7304 26.6085 33.4598 26.7668C33.1891 26.925 32.9671 27.1544 32.8177 27.43C32.6579 27.7277 32.5897 28.0659 32.6218 28.4022C32.6538 28.7385 32.7846 29.0579 32.9977 29.32L30.6502 34.13C30.268 34.1358 29.8987 34.2684 29.6 34.5068C29.3014 34.7453 29.0904 35.0761 29.0002 35.4475C28.914 35.8166 28.9524 36.2039 29.1093 36.5489C29.2662 36.8939 29.5329 37.1773 29.8677 37.355C30.2311 37.5413 30.6491 37.5918 31.0464 37.4974C31.4438 37.403 31.7944 37.1699 32.0352 36.84C32.2703 36.5109 32.3819 36.1094 32.3503 35.7061C32.3188 35.3028 32.1461 34.9236 31.8627 34.635L34.1527 29.95C34.3516 29.969 34.5523 29.952 34.7452 29.9C34.9946 29.8403 35.2267 29.723 35.4227 29.5575C36.296 29.9291 37.1444 30.3567 37.9627 30.8375C38.2598 31.0042 38.5068 31.2477 38.6777 31.5425C38.8602 32.0675 38.4952 32.965 38.4952 32.965C38.2777 33.69 36.7402 36.84 36.7402 36.84C36.3676 36.8302 36.0018 36.941 35.6973 37.1559C35.3928 37.3708 35.1658 37.6782 35.0502 38.0325C34.9615 38.3169 34.9489 38.6195 35.0138 38.9102C35.0787 39.201 35.2187 39.4696 35.4199 39.6892C35.621 39.9089 35.8763 40.072 36.1602 40.1621C36.4441 40.2523 36.7467 40.2663 37.0378 40.203C37.3288 40.1396 37.5981 40.0009 37.8188 39.8009C38.0395 39.6008 38.2039 39.3464 38.2955 39.0629C38.3871 38.7795 38.4027 38.477 38.3408 38.1856C38.2789 37.8942 38.1416 37.6242 37.9427 37.4025C38.1252 37.05 38.2952 36.6975 38.4777 36.325C38.9527 35.3325 39.7652 33.425 39.7652 33.425C39.8527 33.26 40.3102 32.44 40.0227 31.39C39.7852 30.3025 38.8227 29.795 38.8227 29.795C37.6552 29.0425 36.0327 28.345 36.0327 28.345C36.0327 28.345 36.0327 27.955 35.9277 27.67C35.8474 27.4457 35.7214 27.2405 35.5577 27.0675L36.8477 24.4125L44.0727 27.915C44.0727 27.915 45.2727 28.46 45.5302 29.4625C45.7127 30.1675 45.4827 30.7975 45.3577 31.105C44.7577 32.5725 40.1077 41.8975 40.1077 41.8975C40.1077 41.8975 39.5277 43.2825 38.2377 43.3675C37.906 43.3917 37.5728 43.3535 37.2552 43.255L36.7502 43.055L25.9752 37.805C25.9752 37.805 24.9327 37.26 24.7502 36.315C24.5427 35.54 25.0102 34.5875 25.0102 34.5875L30.1927 23.9075C30.1927 23.9075 30.6502 22.9825 31.3577 22.665C31.6325 22.5397 31.9307 22.4741 32.2327 22.4725Z" fill="white"/>
</g>
<defs>
<clipPath id="clip0_4_69">
<rect width="60" height="60" fill="white"/>
</clipPath>
</defs>
</svg>
