<svg width="60" height="60" viewBox="0 0 60 60" fill="none" xmlns="http://www.w3.org/2000/svg">
<g id="github-logo_icon-icons.com_73546 1" clip-path="url(#clip0_1_8)">
<g id="Group">
<path id="Vector" d="M55.9753 15.6753C53.2926 11.0788 49.6538 7.43985 45.0578 4.75746C40.4611 2.07493 35.4428 0.734009 29.9995 0.734009C24.5569 0.734009 19.537 2.07534 14.9413 4.75746C10.3448 7.43971 6.70611 11.0788 4.02345 15.6753C1.3412 20.2716 0 25.2908 0 30.7327C0 37.2697 1.9072 43.148 5.72255 48.369C9.5375 53.5904 14.4658 57.2034 20.5072 59.2084C21.2104 59.3389 21.731 59.2471 22.0695 58.9353C22.4081 58.6231 22.5772 58.2321 22.5772 57.7639C22.5772 57.6858 22.5705 56.9829 22.5575 55.6546C22.5441 54.3263 22.5378 53.1675 22.5378 52.1787L21.6393 52.3341C21.0665 52.4391 20.3438 52.4835 19.4713 52.4709C18.5993 52.4588 17.694 52.3674 16.7567 52.1974C15.8189 52.029 14.9467 51.6384 14.1394 51.0264C13.3325 50.4145 12.7596 49.6134 12.421 48.6245L12.0304 47.7257C11.77 47.1272 11.3601 46.4624 10.8002 45.7338C10.2402 45.0044 9.6739 44.51 9.10106 44.2496L8.82757 44.0538C8.64533 43.9237 8.47622 43.7668 8.31985 43.5847C8.1636 43.4026 8.04663 43.2203 7.9685 43.0378C7.89025 42.8552 7.9551 42.7054 8.16374 42.5878C8.37238 42.4703 8.74944 42.4133 9.29657 42.4133L10.0775 42.53C10.5984 42.6344 11.2426 42.9462 12.0111 43.4673C12.7792 43.988 13.4106 44.665 13.9054 45.4979C14.5047 46.5659 15.2267 47.3796 16.0734 47.9396C16.9195 48.4996 17.7725 48.7791 18.6317 48.7791C19.4909 48.7791 20.233 48.714 20.8582 48.5844C21.4828 48.4542 22.0688 48.2584 22.6159 47.9982C22.8503 46.2527 23.4884 44.9118 24.5297 43.9745C23.0455 43.8185 21.7111 43.5836 20.5259 43.2712C19.3414 42.9585 18.1173 42.4509 16.8545 41.7471C15.591 41.0443 14.5429 40.1716 13.7098 39.1304C12.8766 38.0887 12.1928 36.7211 11.6594 35.0288C11.1256 33.3359 10.8587 31.383 10.8587 29.1696C10.8587 26.0181 11.8876 23.3362 13.9448 21.1226C12.9811 18.7532 13.0721 16.0971 14.2181 13.1545C14.9733 12.9198 16.0933 13.0959 17.5774 13.6816C19.0619 14.2676 20.1487 14.7696 20.8391 15.1858C21.5294 15.6018 22.0826 15.9544 22.4993 16.2403C24.9216 15.5635 27.4214 15.225 29.9992 15.225C32.5771 15.225 35.0774 15.5635 37.4998 16.2403L38.9841 15.3033C39.9992 14.678 41.1978 14.1051 42.5772 13.5842C43.9574 13.0636 45.0128 12.9202 45.7423 13.1549C46.9137 16.0976 47.018 18.7536 46.0541 21.123C48.1112 23.3366 49.1405 26.0192 49.1405 29.17C49.1405 31.3834 48.8726 33.3424 48.3397 35.0484C47.8061 36.7546 47.1164 38.1208 46.2704 39.15C45.4233 40.1789 44.3685 41.0448 43.1057 41.7475C41.8426 42.4508 40.6181 42.9583 39.4336 43.2711C38.2485 43.5839 36.9141 43.8189 35.43 43.9751C36.7836 45.1466 37.4606 46.9956 37.4606 49.5215V57.7628C37.4606 58.231 37.6234 58.6219 37.9493 58.9342C38.2748 59.246 38.7888 59.3378 39.492 59.2071C45.5342 57.2024 50.4625 53.5893 54.2773 48.3679C58.0917 43.1469 59.9996 37.2686 59.9996 30.7316C59.9982 25.2903 58.6563 20.2716 55.9753 15.6753Z" fill="white"/>
</g>
</g>
<defs>
<clipPath id="clip0_1_8">
<rect width="60" height="60" fill="white"/>
</clipPath>
</defs>
</svg>
