<svg width="120" height="128" viewBox="0 0 120 128" fill="none" xmlns="http://www.w3.org/2000/svg">
<mask id="path-1-outside-1_1_4" maskUnits="userSpaceOnUse" x="0.982468" y="-1.00867" width="119" height="131" fill="black">
<rect fill="white" x="0.982468" y="-1.00867" width="119" height="131"/>
<path d="M11.312 128H6.124C5.98 127.648 5.856 127.292 5.752 126.96C4.604 123.396 2.584 118.996 2.068 115.456C1.272 110.208 6.212 109.916 9.4 107.648C14.276 104.124 18.108 102.188 23.4 98.996C24.984 98.064 29.708 95.684 30.232 94.58C31.292 92.416 28.396 89.352 27.628 87.648C26.416 84.96 25.772 82.644 25.608 80C21.212 79.292 17.86 76.644 15.772 73.684C12.416 68.752 10.088 59.624 12.984 52.688C13.212 52.144 14.34 51.06 14.504 50.208C14.812 48.56 13.94 46.372 13.86 44.624C13.524 35.604 15.38 27.836 21.46 25.104C23.92 15.292 32.736 12.02 41.044 7.148C44.148 5.312 47.588 4.144 51.128 2.832C63.772 -1.836 83.272 -0.96 93.772 7.02C98.232 10.396 105.376 17.52 107.936 22.688C114.668 36.316 114.164 59.104 109.456 75.684C108.812 77.912 107.916 81.188 106.624 83.856C105.728 85.708 102.94 89.456 103.292 91.104C103.628 92.788 109.628 97.356 110.92 98.544C113.228 100.788 117.652 103.748 117.98 106.544C118.352 109.52 116.668 113.664 115.792 116.544C114.644 120.396 113.476 124.228 112.316 127.916H11.312V128ZM70.544 109.124C67.648 107.52 63.292 105.812 59.52 105.08C54.896 104.204 55.376 111.416 55.52 115.704C55.684 119.144 57.456 122.728 58.252 125.016C58.648 126.06 58.732 127.208 59.628 127.416C61.212 127.768 66.504 125.66 68.024 124.852C71.212 123.104 73.688 120.352 76.42 118.52C76.504 117.604 76.504 116.708 76.584 115.812C74.984 115.016 73.148 114.436 70.732 114.336C72.396 113.52 74.732 113.52 76.252 112.56L76.332 111.52C73.688 111.376 72.668 110.164 70.896 109.212L70.544 109.124ZM110.316 124.772C111.336 121.476 112.208 118.272 112.792 115.44C113.108 113.892 113.94 110.544 113.732 109.168C113.424 106.708 110.088 104.896 108.376 103.376C105.272 100.56 103.316 98.164 100.068 95.52C98.736 97.52 95.896 98.812 94.816 100.396C102.548 96.732 103.94 114.396 100.9 120.088C101.38 121.836 102.984 122.484 103.652 124.004L103.192 124.9H110.068C110.128 124.9 110.232 124.9 110.296 124.964L110.316 124.772ZM74.916 124.708C74.644 124.312 74.372 123.976 74.12 123.604L72.52 124.624H74.916V124.708ZM89.684 124.708C89.728 123.604 89.792 122.56 89.856 121.52C87.02 121.664 85.456 118.96 83.476 118.708C81.748 118.48 80.272 120.624 78.04 119.748C77.516 120.312 77.06 120.96 76.52 121.44C77.332 122.396 78.084 123.44 78.772 124.544H83.124C83.208 123.668 83.856 123.02 84.728 123.02C85.6 123.02 86.248 123.672 86.248 124.48H89.768L89.684 124.708ZM100.98 124.708C99.312 122.144 95.936 119.912 92.02 121.748L91.856 124.624H100.98V124.708ZM55.604 124.708L55.04 122.872C53.836 119.016 53.124 116.14 52.876 113.912C48 111.58 42.876 109.268 38.732 106.312C37.916 105.748 32.812 99.1 32.168 99.352C22.876 102.956 14.252 109.268 6.484 115.268C7.86 118.228 9.044 121.352 10.168 124.544H55.524L55.604 124.708ZM99.668 113.44C99.52 110.708 98.788 105.124 97.124 104.164C93.604 102.084 87.268 108.312 84.624 109.188C84.876 109.976 85.356 110.624 85.44 111.748C86.96 111.352 88.876 111.604 90.228 112.248C88.624 112.392 86.872 112.392 85.832 113.124C85.436 114.144 85.912 115.668 85.66 117.188C89.352 118.248 93.66 118.808 98.392 118.96C99.268 117.748 99.604 115.52 99.516 113.188L99.668 113.44ZM77.916 111.52C77.664 113.52 78.144 114.252 78.544 116.544C85.268 118.624 84.064 107.268 77.836 111.44L77.916 111.52ZM42.732 104C40.332 106.436 49.5 109.772 52.396 109.936C52.396 108.396 53.272 106.94 53.128 105.836C49.668 105.212 45.108 105.628 42.756 103.98L42.732 104ZM72.396 105.148C72.396 105.376 72.088 105.292 72.044 105.48C75.148 107.896 77.456 108.396 81.664 108.212C83.54 106.816 85.228 105.216 87.228 103.896C82.668 104.296 76.92 107.148 72.416 105.128L72.396 105.148ZM90.644 10.604C82.084 5.772 67.44 2.124 58.248 6.712C50.872 10.396 40.788 16.524 37.436 24.276C40.64 31.732 36.556 38.584 36.248 46.168C36.14 50.212 38.164 53.752 38.332 58.148C37.244 59.94 33.912 60.168 31.6 60.048C30.828 56.148 29.452 51.776 25.436 51.34C19.768 50.736 15.6 55.424 15.352 60.32C15.036 66.092 19.812 75.612 26.476 74.964C29.08 74.712 29.724 72.088 32.556 72.088C34.08 75.128 30.184 76.088 29.768 78.232C29.684 78.792 30.084 80.964 30.332 82.004C31.56 87.024 34.288 93.504 36.956 97.36C40.348 102.148 47.016 102.964 54.184 103.444C55.452 100.648 60.184 100.88 63.288 101.608C59.604 100.148 56.164 96.564 53.288 93.444C49.996 89.84 46.728 85.92 46.556 81.272C52.728 89.836 57.744 97.272 68.956 101.044C77.436 103.84 87.352 99.688 93.832 95.128C96.556 93.212 98.164 90.168 100.084 87.444C107.268 77.128 110.644 62.34 109.912 48.004C109.604 42.088 109.604 36.168 107.604 32.256C105.52 28.092 98.56 24.4 94.392 28.092C93.604 24.008 97.748 21.528 102.644 22.968C99.124 18.404 95.52 13.048 90.56 10.26L90.644 10.604ZM68.436 79.44C71.704 87.684 82.98 86.708 92.48 86.5C92.02 87.54 91.104 88.808 89.98 89.248C86.96 90.48 78.544 91.42 74.316 89.188C71.628 87.728 69.916 84.52 68.44 82.644C67.708 81.728 64.212 79.396 68.376 79.396L68.436 79.44ZM69.312 74.788C74.084 77.268 82.752 77.56 89.212 77.352C89.564 78.788 89.564 80.52 89.584 82.228C81.312 82.664 71.52 80.6 69.332 74.788H69.312ZM104.916 71.684C102.392 76.48 98.808 81.792 91.376 81.956C91.248 80.456 91.148 78.04 91.376 77.144C97.04 76.58 100.58 73.684 104.94 71.704L104.916 71.684ZM101.456 68.124C96.02 71.648 89.956 75.456 81.06 74.584C79.188 72.92 78.48 69.228 80.312 66.792C81.268 68.484 80.62 71.524 83.352 71.96C88.392 72.856 94.228 68.876 97.912 67.48C100.14 63.688 97.66 62.296 95.668 59.86C91.496 54.88 85.912 48.648 86.064 41.128C87.728 39.94 87.916 42.984 88.144 43.524C90.316 48.648 95.748 55.128 99.748 59.524C100.708 60.648 102.312 61.608 102.456 62.34C102.956 64.4 101.1 66.88 101.352 68.256L101.456 68.124ZM29.772 64.524C28.108 63.544 27.688 59.248 25.688 59.148C22.836 58.984 23.356 64.732 23.356 68.088C21.376 66.34 21.04 60.812 22.48 58.024C20.832 57.212 20.108 58.9 19.188 59.524C20.352 51.044 31.668 55.632 29.792 64.648L29.772 64.524ZM21.148 31.956C17.48 36 18.272 43.56 18.688 48.98C25.332 44.788 34.144 49.288 34.064 56.416C37.248 56.332 35.248 52.436 34.688 49.936C32.788 41.772 37.836 32.94 34.896 25.456C29.228 25.892 24.56 28.208 21.148 31.916V31.956ZM69.792 37.892C71.42 40.896 71.936 44.02 74.272 46.272C75.292 47.292 77.312 48.544 76.332 51.356C76.088 52 74.376 53.44 73.4 53.752C69.796 54.792 61.38 53.916 64.212 49.444C67.216 49.504 71.216 51.36 73.444 49.192C71.776 46.396 68.736 41.02 69.86 37.836L69.792 37.892ZM102.832 37.836H103.212C104.96 41.4 106.396 45.168 108.56 48.316C107.124 51.672 97.604 54.668 97.772 48.624C99.856 47.708 103.376 48.436 105.212 47.292C104.188 44.316 102.648 41.916 102.896 37.836H102.832ZM65.892 29.212C58.312 27.456 54.52 32.376 52.248 37.5C50.184 37.004 50.996 34.208 51.516 32.792C52.872 29.044 58.348 24.088 62.808 24.756C64.728 25.064 67.352 26.812 65.892 29.212ZM47.44 8.5C39.104 10.832 28.436 16.872 25.02 24.352C27.672 23.98 29.5 22.644 32.124 22.48C33.128 22.396 34.396 22.876 35.544 22.56C37.816 22 39.708 16.876 41.42 15.04C43.084 13.212 45.064 12.396 46.44 10.732C47.316 10.252 48.604 10.336 48.692 8.96C48.296 8.56 47.88 8.252 47.444 8.396L47.44 8.5Z"/>
</mask>
<path d="M11.312 128H6.124C5.98 127.648 5.856 127.292 5.752 126.96C4.604 123.396 2.584 118.996 2.068 115.456C1.272 110.208 6.212 109.916 9.4 107.648C14.276 104.124 18.108 102.188 23.4 98.996C24.984 98.064 29.708 95.684 30.232 94.58C31.292 92.416 28.396 89.352 27.628 87.648C26.416 84.96 25.772 82.644 25.608 80C21.212 79.292 17.86 76.644 15.772 73.684C12.416 68.752 10.088 59.624 12.984 52.688C13.212 52.144 14.34 51.06 14.504 50.208C14.812 48.56 13.94 46.372 13.86 44.624C13.524 35.604 15.38 27.836 21.46 25.104C23.92 15.292 32.736 12.02 41.044 7.148C44.148 5.312 47.588 4.144 51.128 2.832C63.772 -1.836 83.272 -0.96 93.772 7.02C98.232 10.396 105.376 17.52 107.936 22.688C114.668 36.316 114.164 59.104 109.456 75.684C108.812 77.912 107.916 81.188 106.624 83.856C105.728 85.708 102.94 89.456 103.292 91.104C103.628 92.788 109.628 97.356 110.92 98.544C113.228 100.788 117.652 103.748 117.98 106.544C118.352 109.52 116.668 113.664 115.792 116.544C114.644 120.396 113.476 124.228 112.316 127.916H11.312V128ZM70.544 109.124C67.648 107.52 63.292 105.812 59.52 105.08C54.896 104.204 55.376 111.416 55.52 115.704C55.684 119.144 57.456 122.728 58.252 125.016C58.648 126.06 58.732 127.208 59.628 127.416C61.212 127.768 66.504 125.66 68.024 124.852C71.212 123.104 73.688 120.352 76.42 118.52C76.504 117.604 76.504 116.708 76.584 115.812C74.984 115.016 73.148 114.436 70.732 114.336C72.396 113.52 74.732 113.52 76.252 112.56L76.332 111.52C73.688 111.376 72.668 110.164 70.896 109.212L70.544 109.124ZM110.316 124.772C111.336 121.476 112.208 118.272 112.792 115.44C113.108 113.892 113.94 110.544 113.732 109.168C113.424 106.708 110.088 104.896 108.376 103.376C105.272 100.56 103.316 98.164 100.068 95.52C98.736 97.52 95.896 98.812 94.816 100.396C102.548 96.732 103.94 114.396 100.9 120.088C101.38 121.836 102.984 122.484 103.652 124.004L103.192 124.9H110.068C110.128 124.9 110.232 124.9 110.296 124.964L110.316 124.772ZM74.916 124.708C74.644 124.312 74.372 123.976 74.12 123.604L72.52 124.624H74.916V124.708ZM89.684 124.708C89.728 123.604 89.792 122.56 89.856 121.52C87.02 121.664 85.456 118.96 83.476 118.708C81.748 118.48 80.272 120.624 78.04 119.748C77.516 120.312 77.06 120.96 76.52 121.44C77.332 122.396 78.084 123.44 78.772 124.544H83.124C83.208 123.668 83.856 123.02 84.728 123.02C85.6 123.02 86.248 123.672 86.248 124.48H89.768L89.684 124.708ZM100.98 124.708C99.312 122.144 95.936 119.912 92.02 121.748L91.856 124.624H100.98V124.708ZM55.604 124.708L55.04 122.872C53.836 119.016 53.124 116.14 52.876 113.912C48 111.58 42.876 109.268 38.732 106.312C37.916 105.748 32.812 99.1 32.168 99.352C22.876 102.956 14.252 109.268 6.484 115.268C7.86 118.228 9.044 121.352 10.168 124.544H55.524L55.604 124.708ZM99.668 113.44C99.52 110.708 98.788 105.124 97.124 104.164C93.604 102.084 87.268 108.312 84.624 109.188C84.876 109.976 85.356 110.624 85.44 111.748C86.96 111.352 88.876 111.604 90.228 112.248C88.624 112.392 86.872 112.392 85.832 113.124C85.436 114.144 85.912 115.668 85.66 117.188C89.352 118.248 93.66 118.808 98.392 118.96C99.268 117.748 99.604 115.52 99.516 113.188L99.668 113.44ZM77.916 111.52C77.664 113.52 78.144 114.252 78.544 116.544C85.268 118.624 84.064 107.268 77.836 111.44L77.916 111.52ZM42.732 104C40.332 106.436 49.5 109.772 52.396 109.936C52.396 108.396 53.272 106.94 53.128 105.836C49.668 105.212 45.108 105.628 42.756 103.98L42.732 104ZM72.396 105.148C72.396 105.376 72.088 105.292 72.044 105.48C75.148 107.896 77.456 108.396 81.664 108.212C83.54 106.816 85.228 105.216 87.228 103.896C82.668 104.296 76.92 107.148 72.416 105.128L72.396 105.148ZM90.644 10.604C82.084 5.772 67.44 2.124 58.248 6.712C50.872 10.396 40.788 16.524 37.436 24.276C40.64 31.732 36.556 38.584 36.248 46.168C36.14 50.212 38.164 53.752 38.332 58.148C37.244 59.94 33.912 60.168 31.6 60.048C30.828 56.148 29.452 51.776 25.436 51.34C19.768 50.736 15.6 55.424 15.352 60.32C15.036 66.092 19.812 75.612 26.476 74.964C29.08 74.712 29.724 72.088 32.556 72.088C34.08 75.128 30.184 76.088 29.768 78.232C29.684 78.792 30.084 80.964 30.332 82.004C31.56 87.024 34.288 93.504 36.956 97.36C40.348 102.148 47.016 102.964 54.184 103.444C55.452 100.648 60.184 100.88 63.288 101.608C59.604 100.148 56.164 96.564 53.288 93.444C49.996 89.84 46.728 85.92 46.556 81.272C52.728 89.836 57.744 97.272 68.956 101.044C77.436 103.84 87.352 99.688 93.832 95.128C96.556 93.212 98.164 90.168 100.084 87.444C107.268 77.128 110.644 62.34 109.912 48.004C109.604 42.088 109.604 36.168 107.604 32.256C105.52 28.092 98.56 24.4 94.392 28.092C93.604 24.008 97.748 21.528 102.644 22.968C99.124 18.404 95.52 13.048 90.56 10.26L90.644 10.604ZM68.436 79.44C71.704 87.684 82.98 86.708 92.48 86.5C92.02 87.54 91.104 88.808 89.98 89.248C86.96 90.48 78.544 91.42 74.316 89.188C71.628 87.728 69.916 84.52 68.44 82.644C67.708 81.728 64.212 79.396 68.376 79.396L68.436 79.44ZM69.312 74.788C74.084 77.268 82.752 77.56 89.212 77.352C89.564 78.788 89.564 80.52 89.584 82.228C81.312 82.664 71.52 80.6 69.332 74.788H69.312ZM104.916 71.684C102.392 76.48 98.808 81.792 91.376 81.956C91.248 80.456 91.148 78.04 91.376 77.144C97.04 76.58 100.58 73.684 104.94 71.704L104.916 71.684ZM101.456 68.124C96.02 71.648 89.956 75.456 81.06 74.584C79.188 72.92 78.48 69.228 80.312 66.792C81.268 68.484 80.62 71.524 83.352 71.96C88.392 72.856 94.228 68.876 97.912 67.48C100.14 63.688 97.66 62.296 95.668 59.86C91.496 54.88 85.912 48.648 86.064 41.128C87.728 39.94 87.916 42.984 88.144 43.524C90.316 48.648 95.748 55.128 99.748 59.524C100.708 60.648 102.312 61.608 102.456 62.34C102.956 64.4 101.1 66.88 101.352 68.256L101.456 68.124ZM29.772 64.524C28.108 63.544 27.688 59.248 25.688 59.148C22.836 58.984 23.356 64.732 23.356 68.088C21.376 66.34 21.04 60.812 22.48 58.024C20.832 57.212 20.108 58.9 19.188 59.524C20.352 51.044 31.668 55.632 29.792 64.648L29.772 64.524ZM21.148 31.956C17.48 36 18.272 43.56 18.688 48.98C25.332 44.788 34.144 49.288 34.064 56.416C37.248 56.332 35.248 52.436 34.688 49.936C32.788 41.772 37.836 32.94 34.896 25.456C29.228 25.892 24.56 28.208 21.148 31.916V31.956ZM69.792 37.892C71.42 40.896 71.936 44.02 74.272 46.272C75.292 47.292 77.312 48.544 76.332 51.356C76.088 52 74.376 53.44 73.4 53.752C69.796 54.792 61.38 53.916 64.212 49.444C67.216 49.504 71.216 51.36 73.444 49.192C71.776 46.396 68.736 41.02 69.86 37.836L69.792 37.892ZM102.832 37.836H103.212C104.96 41.4 106.396 45.168 108.56 48.316C107.124 51.672 97.604 54.668 97.772 48.624C99.856 47.708 103.376 48.436 105.212 47.292C104.188 44.316 102.648 41.916 102.896 37.836H102.832ZM65.892 29.212C58.312 27.456 54.52 32.376 52.248 37.5C50.184 37.004 50.996 34.208 51.516 32.792C52.872 29.044 58.348 24.088 62.808 24.756C64.728 25.064 67.352 26.812 65.892 29.212ZM47.44 8.5C39.104 10.832 28.436 16.872 25.02 24.352C27.672 23.98 29.5 22.644 32.124 22.48C33.128 22.396 34.396 22.876 35.544 22.56C37.816 22 39.708 16.876 41.42 15.04C43.084 13.212 45.064 12.396 46.44 10.732C47.316 10.252 48.604 10.336 48.692 8.96C48.296 8.56 47.88 8.252 47.444 8.396L47.44 8.5Z" fill="black"/>
<path d="M11.312 128H6.124C5.98 127.648 5.856 127.292 5.752 126.96C4.604 123.396 2.584 118.996 2.068 115.456C1.272 110.208 6.212 109.916 9.4 107.648C14.276 104.124 18.108 102.188 23.4 98.996C24.984 98.064 29.708 95.684 30.232 94.58C31.292 92.416 28.396 89.352 27.628 87.648C26.416 84.96 25.772 82.644 25.608 80C21.212 79.292 17.86 76.644 15.772 73.684C12.416 68.752 10.088 59.624 12.984 52.688C13.212 52.144 14.34 51.06 14.504 50.208C14.812 48.56 13.94 46.372 13.86 44.624C13.524 35.604 15.38 27.836 21.46 25.104C23.92 15.292 32.736 12.02 41.044 7.148C44.148 5.312 47.588 4.144 51.128 2.832C63.772 -1.836 83.272 -0.96 93.772 7.02C98.232 10.396 105.376 17.52 107.936 22.688C114.668 36.316 114.164 59.104 109.456 75.684C108.812 77.912 107.916 81.188 106.624 83.856C105.728 85.708 102.94 89.456 103.292 91.104C103.628 92.788 109.628 97.356 110.92 98.544C113.228 100.788 117.652 103.748 117.98 106.544C118.352 109.52 116.668 113.664 115.792 116.544C114.644 120.396 113.476 124.228 112.316 127.916H11.312V128ZM70.544 109.124C67.648 107.52 63.292 105.812 59.52 105.08C54.896 104.204 55.376 111.416 55.52 115.704C55.684 119.144 57.456 122.728 58.252 125.016C58.648 126.06 58.732 127.208 59.628 127.416C61.212 127.768 66.504 125.66 68.024 124.852C71.212 123.104 73.688 120.352 76.42 118.52C76.504 117.604 76.504 116.708 76.584 115.812C74.984 115.016 73.148 114.436 70.732 114.336C72.396 113.52 74.732 113.52 76.252 112.56L76.332 111.52C73.688 111.376 72.668 110.164 70.896 109.212L70.544 109.124ZM110.316 124.772C111.336 121.476 112.208 118.272 112.792 115.44C113.108 113.892 113.94 110.544 113.732 109.168C113.424 106.708 110.088 104.896 108.376 103.376C105.272 100.56 103.316 98.164 100.068 95.52C98.736 97.52 95.896 98.812 94.816 100.396C102.548 96.732 103.94 114.396 100.9 120.088C101.38 121.836 102.984 122.484 103.652 124.004L103.192 124.9H110.068C110.128 124.9 110.232 124.9 110.296 124.964L110.316 124.772ZM74.916 124.708C74.644 124.312 74.372 123.976 74.12 123.604L72.52 124.624H74.916V124.708ZM89.684 124.708C89.728 123.604 89.792 122.56 89.856 121.52C87.02 121.664 85.456 118.96 83.476 118.708C81.748 118.48 80.272 120.624 78.04 119.748C77.516 120.312 77.06 120.96 76.52 121.44C77.332 122.396 78.084 123.44 78.772 124.544H83.124C83.208 123.668 83.856 123.02 84.728 123.02C85.6 123.02 86.248 123.672 86.248 124.48H89.768L89.684 124.708ZM100.98 124.708C99.312 122.144 95.936 119.912 92.02 121.748L91.856 124.624H100.98V124.708ZM55.604 124.708L55.04 122.872C53.836 119.016 53.124 116.14 52.876 113.912C48 111.58 42.876 109.268 38.732 106.312C37.916 105.748 32.812 99.1 32.168 99.352C22.876 102.956 14.252 109.268 6.484 115.268C7.86 118.228 9.044 121.352 10.168 124.544H55.524L55.604 124.708ZM99.668 113.44C99.52 110.708 98.788 105.124 97.124 104.164C93.604 102.084 87.268 108.312 84.624 109.188C84.876 109.976 85.356 110.624 85.44 111.748C86.96 111.352 88.876 111.604 90.228 112.248C88.624 112.392 86.872 112.392 85.832 113.124C85.436 114.144 85.912 115.668 85.66 117.188C89.352 118.248 93.66 118.808 98.392 118.96C99.268 117.748 99.604 115.52 99.516 113.188L99.668 113.44ZM77.916 111.52C77.664 113.52 78.144 114.252 78.544 116.544C85.268 118.624 84.064 107.268 77.836 111.44L77.916 111.52ZM42.732 104C40.332 106.436 49.5 109.772 52.396 109.936C52.396 108.396 53.272 106.94 53.128 105.836C49.668 105.212 45.108 105.628 42.756 103.98L42.732 104ZM72.396 105.148C72.396 105.376 72.088 105.292 72.044 105.48C75.148 107.896 77.456 108.396 81.664 108.212C83.54 106.816 85.228 105.216 87.228 103.896C82.668 104.296 76.92 107.148 72.416 105.128L72.396 105.148ZM90.644 10.604C82.084 5.772 67.44 2.124 58.248 6.712C50.872 10.396 40.788 16.524 37.436 24.276C40.64 31.732 36.556 38.584 36.248 46.168C36.14 50.212 38.164 53.752 38.332 58.148C37.244 59.94 33.912 60.168 31.6 60.048C30.828 56.148 29.452 51.776 25.436 51.34C19.768 50.736 15.6 55.424 15.352 60.32C15.036 66.092 19.812 75.612 26.476 74.964C29.08 74.712 29.724 72.088 32.556 72.088C34.08 75.128 30.184 76.088 29.768 78.232C29.684 78.792 30.084 80.964 30.332 82.004C31.56 87.024 34.288 93.504 36.956 97.36C40.348 102.148 47.016 102.964 54.184 103.444C55.452 100.648 60.184 100.88 63.288 101.608C59.604 100.148 56.164 96.564 53.288 93.444C49.996 89.84 46.728 85.92 46.556 81.272C52.728 89.836 57.744 97.272 68.956 101.044C77.436 103.84 87.352 99.688 93.832 95.128C96.556 93.212 98.164 90.168 100.084 87.444C107.268 77.128 110.644 62.34 109.912 48.004C109.604 42.088 109.604 36.168 107.604 32.256C105.52 28.092 98.56 24.4 94.392 28.092C93.604 24.008 97.748 21.528 102.644 22.968C99.124 18.404 95.52 13.048 90.56 10.26L90.644 10.604ZM68.436 79.44C71.704 87.684 82.98 86.708 92.48 86.5C92.02 87.54 91.104 88.808 89.98 89.248C86.96 90.48 78.544 91.42 74.316 89.188C71.628 87.728 69.916 84.52 68.44 82.644C67.708 81.728 64.212 79.396 68.376 79.396L68.436 79.44ZM69.312 74.788C74.084 77.268 82.752 77.56 89.212 77.352C89.564 78.788 89.564 80.52 89.584 82.228C81.312 82.664 71.52 80.6 69.332 74.788H69.312ZM104.916 71.684C102.392 76.48 98.808 81.792 91.376 81.956C91.248 80.456 91.148 78.04 91.376 77.144C97.04 76.58 100.58 73.684 104.94 71.704L104.916 71.684ZM101.456 68.124C96.02 71.648 89.956 75.456 81.06 74.584C79.188 72.92 78.48 69.228 80.312 66.792C81.268 68.484 80.62 71.524 83.352 71.96C88.392 72.856 94.228 68.876 97.912 67.48C100.14 63.688 97.66 62.296 95.668 59.86C91.496 54.88 85.912 48.648 86.064 41.128C87.728 39.94 87.916 42.984 88.144 43.524C90.316 48.648 95.748 55.128 99.748 59.524C100.708 60.648 102.312 61.608 102.456 62.34C102.956 64.4 101.1 66.88 101.352 68.256L101.456 68.124ZM29.772 64.524C28.108 63.544 27.688 59.248 25.688 59.148C22.836 58.984 23.356 64.732 23.356 68.088C21.376 66.34 21.04 60.812 22.48 58.024C20.832 57.212 20.108 58.9 19.188 59.524C20.352 51.044 31.668 55.632 29.792 64.648L29.772 64.524ZM21.148 31.956C17.48 36 18.272 43.56 18.688 48.98C25.332 44.788 34.144 49.288 34.064 56.416C37.248 56.332 35.248 52.436 34.688 49.936C32.788 41.772 37.836 32.94 34.896 25.456C29.228 25.892 24.56 28.208 21.148 31.916V31.956ZM69.792 37.892C71.42 40.896 71.936 44.02 74.272 46.272C75.292 47.292 77.312 48.544 76.332 51.356C76.088 52 74.376 53.44 73.4 53.752C69.796 54.792 61.38 53.916 64.212 49.444C67.216 49.504 71.216 51.36 73.444 49.192C71.776 46.396 68.736 41.02 69.86 37.836L69.792 37.892ZM102.832 37.836H103.212C104.96 41.4 106.396 45.168 108.56 48.316C107.124 51.672 97.604 54.668 97.772 48.624C99.856 47.708 103.376 48.436 105.212 47.292C104.188 44.316 102.648 41.916 102.896 37.836H102.832ZM65.892 29.212C58.312 27.456 54.52 32.376 52.248 37.5C50.184 37.004 50.996 34.208 51.516 32.792C52.872 29.044 58.348 24.088 62.808 24.756C64.728 25.064 67.352 26.812 65.892 29.212ZM47.44 8.5C39.104 10.832 28.436 16.872 25.02 24.352C27.672 23.98 29.5 22.644 32.124 22.48C33.128 22.396 34.396 22.876 35.544 22.56C37.816 22 39.708 16.876 41.42 15.04C43.084 13.212 45.064 12.396 46.44 10.732C47.316 10.252 48.604 10.336 48.692 8.96C48.296 8.56 47.88 8.252 47.444 8.396L47.44 8.5Z" stroke="white" stroke-width="2" mask="url(#path-1-outside-1_1_4)"/>
</svg>
