<svg width="60" height="60" viewBox="0 0 60 60" fill="none" xmlns="http://www.w3.org/2000/svg">
<g id="mail_120263 1" clip-path="url(#clip0_4_73)">
<path id="Vector" d="M5.54025 47.5808C6.13266 47.8679 6.79753 48.0288 7.5 48.0288H52.5C53.2025 48.0288 53.8674 47.8679 54.4598 47.5808L36.7339 30.8976L30.9536 35.6579C30.3997 36.114 29.6003 36.114 29.0464 35.6579L23.2661 30.8976L5.54025 47.5808ZM3.42929 45.4495C3.44318 45.4353 3.4574 45.4214 3.47196 45.4077L20.9316 28.9751L3.54645 14.6579C3.50854 14.6267 3.47255 14.594 3.43851 14.56C3.15741 15.1474 3 15.8053 3 16.5V43.5288C3 44.2159 3.15397 44.867 3.42929 45.4495ZM56.5707 45.4495C56.846 44.867 57 44.2159 57 43.5288V16.5C57 15.8053 56.8426 15.1474 56.5615 14.56C56.5275 14.594 56.4915 14.6267 56.4536 14.6579L39.0684 28.9751L56.528 45.4077C56.5426 45.4214 56.5568 45.4353 56.5707 45.4495ZM54.4333 12.4353C53.8476 12.1562 53.192 12 52.5 12H7.5C6.80798 12 6.15244 12.1562 5.56672 12.4353L30 32.5568L54.4333 12.4353ZM7.5 9H52.5C56.6421 9 60 12.3579 60 16.5V43.5288C60 47.671 56.6421 51.0288 52.5 51.0288H7.5C3.35786 51.0288 0 47.671 0 43.5288V16.5C0 12.3579 3.35786 9 7.5 9Z" fill="white" stroke="white" stroke-width="3"/>
</g>
<defs>
<clipPath id="clip0_4_73">
<rect width="60" height="60" fill="white"/>
</clipPath>
</defs>
</svg>
