<svg width="60" height="60" viewBox="0 0 60 60" fill="none" xmlns="http://www.w3.org/2000/svg">
<g id="353436-box-health-pulse-status_107505 1">
<path id="Vector" d="M55 7H5C2.25 7 0 9.25 0 12V27.6012H15.3763L18.7362 19.005C19.12 18.0238 20.1038 17.3813 21.1287 17.4163C22.1812 17.4438 23.105 18.1275 23.4375 19.1263L28.1912 33.4225L33.3213 21.2188C33.6988 20.3225 34.5612 19.7263 35.5337 19.69C36.5362 19.6475 37.4113 20.185 37.8525 21.0512L41.1975 27.6025H44.5837C45.9637 27.6025 47.0837 28.7225 47.0837 30.1025C47.0837 31.4825 45.9637 32.6025 44.5837 32.6025H39.6663C38.7263 32.6025 37.8675 32.0763 37.44 31.24L35.8462 28.1162L30.2225 41.4912C29.8313 42.4212 28.9212 43.0225 27.9187 43.0225C27.8862 43.0225 27.8538 43.0225 27.8213 43.02C26.78 42.9813 25.8738 42.3 25.545 41.3112L20.875 27.2675L19.4125 31.0112C19.0375 31.97 18.1138 32.6013 17.0837 32.6013H0V48.3112C0 51.0612 2.25 53.3112 5 53.3112H55C57.75 53.3112 60 51.0612 60 48.3112V11.9988C60 9.25 57.75 7 55 7Z" fill="white"/>
</g>
</svg>
